# xmcd CD database file
#
# Track frame offsets:
#	150
#	21250
#	53768
#	80134
#	100011
#	127131
#	152289
#	192634
#	240377
#	263509
#	296934
#
# Disc length: 4470 seconds
#
# Revision: 0
# Processed by: cddbd v1.5.2PL0 Copyright (c) Steve Scherf et al.
# Submitted via: CDex 1.51
#
DISCID=9511740b
DTITLE=Etta James - Live At Montreux 1975 - 1993
DYEAR=2012
DGENRE=Blues
TTITLE0=I Just Wanna Make Love To You
TTITLE1=I'd Rather Go Blind
TTITLE2=How Strong Is A Woman
TTITLE3=A Lover Is Forever
TTITLE4=Beware
TTITLE5=Come To Mama
TTITLE6=Respect Yourself
TTITLE7=W.O.M.A.N.
TTITLE8=Dust My Broom
TTITLE9=Medley:At Last/Trust In Me/ASunday Kind Of Love
TTITLE10=Sugar On The Floor
EXTD=YEAR: 2012
EXTT0=
EXTT1=
EXTT2=
EXTT3=
EXTT4=
EXTT5=
EXTT6=
EXTT7=
EXTT8=
EXTT9=
EXTT10=
PLAYORDER=
